#!OML:ASF X:\für Bonn\!DataBase\2005_08_12_Daniel\c3d\Daniel.ASF
:FULLY-SPECIFIED
:DEGREES
139
root 3.92774 16.7974 -0.289311 -768.25 -72.4488 744.558
lowerback 24.6127 -0.0770608 -1.22637
upperback 11.5624 -1.73828 -8.25758
thorax -1.11359 -1.12756 -7.90998
lowerneck 15.1422 10.5592 0.0170007
upperneck 27.3667 11.2807 6.83229
head 5.65732 5.14815 2.12136
rclavicle 1.23246e-014 5.24792e-014
rhumerus -51.7288 12.9751 -104.286
rradius 45.3663
rwrist 3.78372
rhand -29.9067 21.0208
rfingers 7.12502
rthumb -3.22736 -8.93449
lclavicle 1.23246e-014 5.24792e-014
lhumerus -18.7775 8.39125 66.1839
lradius 128.653
lwrist 209.353
lhand -13.129 17.6086
lfingers 7.12502
lthumb 12.9688 47.1855
rfemur -0.96065 -1.17035 13.0226
rtibia 46.3099
rfoot -21.354 -6.73798
rtoes -7.87337
lfemur -42.8638 -3.2367 -28.1973
ltibia 99.2457
lfoot 15.1755 3.86434
ltoes -16.5117
140
root 3.94399 16.8025 -0.272364 -766.323 -72.3771 743.42
lowerback 23.6775 -0.373533 -1.15446
upperback 11.3496 -2.01195 -8.12526
thorax -0.934895 -1.24765 -7.72264
lowerneck 14.9585 10.702 -0.122585
upperneck 27.2386 11.5356 6.54799
head 5.64529 5.2529 2.05598
rclavicle 3.97569e-016 2.38542e-014
rhumerus -51.6896 13.0246 -103.999
rradius 43.9149
rwrist 4.67714
rhand -29.5832 21.0257
rfingers 7.12502
rthumb -2.91498 -8.93411
lclavicle 3.97569e-016 2.38542e-014
lhumerus -18.0874 8.46222 65.9384
lradius 128.687
lwrist 209.294
lhand -13.239 17.63
lfingers 7.12502
lthumb 12.8628 47.2137
rfemur -2.02845 -1.50917 13.1129
rtibia 46.612
rfoot -21.2754 -6.58501
rtoes -7.65845
lfemur -40.3283 -4.00204 -27.8259
ltibia 98.1974
lfoot 16.0269 2.76992
ltoes -17.6995
141
root 3.96142 16.8029 -0.25428 -764.409 -72.2894 742.234
lowerback 22.789 -0.688916 -1.09483
upperback 11.1511 -2.32143 -7.98749
thorax -0.760186 -1.38768 -7.52151
lowerneck 14.7304 10.8633 -0.247391
upperneck 27.1351 11.8167 6.25986
head 5.64897 5.3717 1.99049
rclavicle 6.02318e-014 3.49861e-014
rhumerus -51.5032 13.1184 -103.633
rradius 42.4465
rwrist 5.7331
rhand -29.3148 20.9646
rfingers 7.12502
rthumb -2.65569 -8.9986
lclavicle 6.02318e-014 3.49861e-014
lhumerus -17.4747 8.6076 65.6691
lradius 128.711
lwrist 209.257
lhand -13.2646 17.6519
lfingers 7.12502
lthumb 12.8381 47.2371
rfemur -3.03784 -1.84612 13.2208
rtibia 46.9073
rfoot -21.1679 -6.46436
rtoes -7.5219
lfemur -37.8044 -4.68596 -27.3952
ltibia 97.0316
lfoot 16.8602 1.39625
ltoes -18.1184
142
root 3.98 16.8022 -0.236341 -762.546 -72.1923 741.066
lowerback 21.923 -0.995461 -1.07311
upperback 10.9564 -2.63232 -7.83295
thorax -0.584249 -1.53093 -7.28755
lowerneck 14.5529 11.0187 -0.317821
upperneck 27.0098 12.0996 5.93413
head 5.64556 5.49337 1.90255
rclavicle -5.32743e-014 3.81667e-014
rhumerus -51.2116 13.1243 -103.125
rradius 41.0043
rwrist 6.99076
rhand -29.0709 20.8859
rfingers 7.12502
rthumb -2.4202 -9.08008
lclavicle -5.32743e-014 3.81667e-014
lhumerus -16.9043 8.79535 65.4067
lradius 128.7
lwrist 209.2
lhand -13.2337 17.7549
lfingers 7.12502
lthumb 12.8679 47.3382
rfemur -4.01395 -2.1704 13.332
rtibia 47.1857
rfoot -21.0579 -6.34889
rtoes -7.39458
lfemur -35.3577 -5.26522 -26.9244
ltibia 95.8065
lfoot 17.5239 -0.148738
ltoes -18.0057
143
root 4.00229 16.8047 -0.217472 -760.728 -72.0562 739.926
lowerback 21.0824 -1.32055 -1.08541
upperback 10.7719 -2.9796 -7.67742
thorax -0.405905 -1.69468 -7.03316
lowerneck 14.4231 11.1699 -0.355434
upperneck 26.8408 12.3901 5.54491
head 5.62881 5.61794 1.78677
rclavicle 9.34288e-015 -1.74931e-014
rhumerus -50.8374 12.9533 -102.425
rradius 39.6458
rwrist 8.59737
rhand -28.8261 20.8238
rfingers 7.12502
rthumb -2.18373 -9.14474
lclavicle 9.34288e-015 -1.74931e-014
lhumerus -16.4047 9.05383 65.1507
lradius 128.683
lwrist 209.204
lhand -13.1703 17.857
lfingers 7.12502
lthumb 12.9291 47.4365
rfemur -4.96454 -2.5191 13.4131
rtibia 47.4529
rfoot -20.9357 -6.20842
rtoes -7.28695
lfemur -33.0279 -5.92976 -26.4134
ltibia 94.5385
lfoot 17.854 -1.3504
ltoes -17.0849
144
root 4.02724 16.8081 -0.199237 -758.939 -71.9227 738.777
lowerback 20.3179 -1.64583 -1.13541
upperback 10.562 -3.33996 -7.48993
thorax -0.284707 -1.86773 -6.72523
lowerneck 14.4041 11.319 -0.36738
upperneck 26.6416 12.6836 5.09449
head 5.5941 5.74109 1.64225
rclavicle 1.86858e-014 -1.27222e-014
rhumerus -50.4724 12.5474 -101.484
rradius 38.4593
rwrist 10.4897
rhand -28.4716 20.8247
rfingers 7.12502
rthumb -1.84139 -9.14707
lclavicle 1.86858e-014 -1.27222e-014
lhumerus -16.0159 9.32053 64.9288
lradius 128.663
lwrist 209.162
lhand -12.9531 17.9765
lfingers 7.12502
lthumb 13.1384 47.5426
rfemur -5.88828 -2.8455 13.5176
rtibia 47.7165
rfoot -20.7956 -6.10494
rtoes -7.11455
lfemur -30.7543 -6.57917 -25.8646
ltibia 93.2209
lfoot 17.7597 -2.2747
ltoes -16.6751
145
root 4.05642 16.8068 -0.181156 -757.189 -71.7481 737.646
lowerback 19.6006 -1.98916 -1.21197
upperback 10.3596 -3.7345 -7.30743
thorax -0.174146 -2.05966 -6.40822
lowerneck 14.3356 11.4662 -0.378062
upperneck 26.4733 12.9726 4.64459
head 5.57784 5.86241 1.50206
rclavicle -3.00165e-014 -2.70347e-014
rhumerus -50.1076 11.9182 -100.364
rradius 37.5395
rwrist 12.5593
rhand -28.0625 20.8621
rfingers 7.12502
rthumb -1.44625 -9.11279
lclavicle -3.00165e-014 -2.70347e-014
lhumerus -15.7245 9.6226 64.6885
lradius 128.677
lwrist 209.124
lhand -12.7051 18.1094
lfingers 7.12502
lthumb 13.3774 47.6599
rfemur -6.8139 -3.21923 13.5917
rtibia 48.0033
rfoot -20.6357 -5.97337
rtoes -6.9845
lfemur -28.5633 -7.23276 -25.3426
ltibia 91.8618
lfoot 17.3746 -3.1412
ltoes -17.1553
146
root 4.08844 16.8013 -0.163907 -755.488 -71.5504 736.542
lowerback 18.9362 -2.33429 -1.32116
upperback 10.141 -4.14156 -7.11807
thorax -0.0990312 -2.25951 -6.06881
lowerneck 14.3148 11.5957 -0.350791
upperneck 26.3203 13.2368 4.17947
head 5.56531 5.97255 1.35037
rclavicle 1.51076e-014 3.18055e-015
rhumerus -49.8049 11.1535 -99.1184
rradius 36.8815
rwrist 14.563
rhand -27.5641 20.9934
rfingers 7.12502
rthumb -0.964954 -8.98413
lclavicle 1.51076e-014 3.18055e-015
lhumerus -15.5221 9.91403 64.4908
lradius 128.701
lwrist 209.054
lhand -12.4277 18.1741
lfingers 7.12502
lthumb 13.6448 47.7069
rfemur -7.74969 -3.5777 13.6672
rtibia 48.3205
rfoot -20.4888 -5.85966
rtoes -6.84587
lfemur -26.423 -7.8495 -24.8211
ltibia 90.4479
lfoot 16.6588 -3.96464
ltoes -17.9245
147
root 4.12228 16.7929 -0.147703 -753.831 -71.3316 735.455
lowerback 18.3075 -2.68655 -1.47954
upperback 9.92624 -4.56792 -6.90067
thorax -0.0262367 -2.47137 -5.67458
lowerneck 14.2508 11.7333 -0.371076
upperneck 26.1905 13.5072 3.71606
head 5.56403 6.08171 1.20995
rclavicle 2.82274e-014 2.38542e-014
rhumerus -49.5327 10.3887 -97.8005
rradius 36.4537
rwrist 16.342
rhand -27.0862 21.1865
rfingers 7.12502
rthumb -0.503356 -8.79268
lclavicle 2.82274e-014 2.38542e-014
lhumerus -15.4309 10.2769 64.2946
lradius 128.76
lwrist 209.02
lhand -12.2306 18.2056
lfingers 7.12502
lthumb 13.8348 47.7255
rfemur -8.67784 -3.9454 13.7462
rtibia 48.6525
rfoot -20.3283 -5.77082
rtoes -6.73693
lfemur -24.3116 -8.42759 -24.2891
ltibia 88.9684
lfoot 15.6305 -4.75337
ltoes -18.6407
148
root 4.15695 16.785 -0.132983 -752.226 -71.0858 734.406
lowerback 17.7099 -3.04336 -1.66326
upperback 9.69491 -5.00745 -6.69558
thorax 0.0218659 -2.69039 -5.28358
lowerneck 14.2373 11.867 -0.314424
upperneck 26.0656 13.7726 3.25706
head 5.56361 6.19409 1.05759
rclavicle 2.40529e-014 -1.11319e-014
rhumerus -49.3202 9.63844 -96.5377
rradius 36.2283
rwrist 17.7357
rhand -26.6832 21.4254
rfingers 7.12502
rthumb -0.114083 -8.55432
lclavicle 2.40529e-014 -1.11319e-014
lhumerus -15.4478 10.6132 64.0564
lradius 128.853
lwrist 208.919
lhand -12.0324 18.1919
lfingers 7.12502
lthumb 14.0258 47.6987
rfemur -9.57629 -4.25561 13.8451
rtibia 48.9648
rfoot -20.1793 -5.75399
rtoes -6.67017
lfemur -22.2316 -8.97705 -23.7453
ltibia 87.4075
lfoot 14.3238 -5.36734
ltoes -19.2197
149
root 4.19348 16.7821 -0.119097 -750.657 -70.8151 733.352
lowerback 17.1724 -3.40848 -1.88583
upperback 9.46793 -5.46645 -6.46297
thorax 0.0575009 -2.92088 -4.84335
lowerneck 14.2819 12.0031 -0.261351
upperneck 25.8601 14.0476 2.75818
head 5.53254 6.31097 0.888243
rclavicle -1.17482e-013 -6.83819e-014
rhumerus -49.1236 8.99849 -95.3131
rradius 36.1718
rwrist 18.6868
rhand -26.3959 21.6362
rfingers 7.12502
rthumb 0.163334 -8.34346
lclavicle -1.17482e-013 -6.83819e-014
lhumerus -15.5717 10.9891 63.8173
lradius 128.992
lwrist 208.86
lhand -11.9001 18.0813
lfingers 7.12502
lthumb 14.1532 47.5792
rfemur -10.3993 -4.54228 13.9577
rtibia 49.2239
rfoot -20.0144 -5.78391
rtoes -6.56187
lfemur -20.1553 -9.47535 -23.1691
ltibia 85.74
lfoot 12.6209 -5.76322
ltoes -19.761
